<?xml version="1.0" encoding="UTF-8" standalone="no"?>
<!DOCTYPE svg PUBLIC "-//W3C//DTD SVG 1.1//EN" "http://www.w3.org/Graphics/SVG/1.1/DTD/svg11.dtd">
<svg width="100%" height="100%" viewBox="0 0 1335 823" version="1.1" xmlns="http://www.w3.org/2000/svg" xmlns:xlink="http://www.w3.org/1999/xlink" xml:space="preserve" xmlns:serif="http://www.serif.com/" style="fill-rule:evenodd;clip-rule:evenodd;stroke-linejoin:round;stroke-miterlimit:2;">
    <g transform="matrix(1,0,0,1,-61.467645,-0)">
        <g transform="matrix(1,0,0,1,-281.739961,-682.923957)">
            <g id="填色" transform="matrix(0.957383,0,0,0.957383,-93.915239,0.044456)">
                <g transform="matrix(0.740407,0,0,0.740407,528.869961,258.531784)">
                    <g transform="matrix(1.034333,0,0,1.034333,-13.488095,218.072843)">
                        <path d="M1224.546,1246.967C1224.039,1242.467 1228.852,1235.51 1234.932,1226.011C1241.011,1216.512 1249.37,1190.421 1251.143,1172.943C1252.916,1155.465 1259.756,1126.082 1264.188,1096.952C1268.621,1067.822 1272.294,1052.243 1278.373,1029.066C1284.453,1005.889 1295.345,968.019 1303.197,951.006C1311.05,933.993 1329.161,894.814 1342.966,878.349C1356.771,861.885 1379.949,833.008 1411.612,808.437C1443.275,783.867 1473.039,765.122 1491.023,752.963C1509.008,740.805 1552.576,718.767 1591.839,700.909C1631.101,683.051 1674.416,682.924 1674.416,682.924C1674.416,682.924 1712.159,682.418 1726.85,716.262C1741.542,750.106 1738.122,764.01 1737.109,772.532C1736.096,781.054 1731.157,800.966 1723.811,817.684C1716.465,834.402 1700.127,859.606 1688.855,874.804C1677.553,890.042 1648.706,923.945 1639.713,933.824C1630.721,943.703 1592.472,980.432 1586.899,985.498C1581.327,990.565 1532.185,1037.046 1521.167,1048.445C1510.148,1059.844 1466.833,1096.826 1440.615,1116.711C1414.398,1136.595 1384.255,1157.239 1373.87,1162.305C1363.484,1167.372 1349.299,1169.905 1338.533,1168.385C1327.768,1166.865 1326.881,1164.205 1322.195,1159.772C1317.509,1155.34 1316.749,1148.754 1316.749,1137.988C1316.749,1127.223 1320.929,1113.671 1328.401,1095.491C1335.874,1077.311 1350.565,1050.023 1358.798,1035.838C1367.03,1021.652 1396.54,972.005 1406.166,959.339C1415.792,946.674 1445.468,909.078 1459.906,893.246C1474.345,877.415 1493.176,857.004 1505.082,845.352C1516.987,833.7 1521.926,829.9 1538.011,818.248C1554.096,806.596 1588.692,785.163 1590.952,788.992C1592.654,791.874 1564.735,811.156 1547.89,827.621C1531.045,844.085 1509.661,865.235 1509.661,865.235L1476.347,904.05C1476.347,904.05 1460.373,922.99 1450.494,934.895C1440.615,946.801 1429.343,967.192 1421.364,977.704C1413.385,988.216 1396.667,1020.766 1389.068,1034.318C1381.469,1047.87 1369.69,1072.82 1367.537,1079.533C1365.384,1086.245 1364.497,1093.844 1366.65,1096.631C1368.803,1099.417 1372.603,1104.483 1388.308,1098.024C1404.013,1091.565 1440.869,1067.754 1459.74,1054.455C1478.611,1041.157 1500.395,1022.159 1517.747,1007.467C1535.098,992.776 1569.548,963.899 1579.68,955.413C1589.812,946.927 1618.309,921.344 1635.407,904.499C1652.505,887.654 1664.917,869.036 1675.809,851.558C1686.701,834.08 1692.401,812.676 1693.287,807.103C1694.174,801.53 1695.694,784.939 1694.554,769.36C1693.414,753.782 1682.395,737.824 1679.989,733.011C1677.582,728.198 1667.704,719.079 1661.498,715.913C1655.292,712.747 1642.12,713.38 1621.982,715.533C1601.844,717.686 1565.115,732.251 1550.677,738.331C1536.238,744.41 1522.433,751.629 1509.514,759.482C1496.596,767.334 1470.126,784.305 1470.126,784.305C1470.126,784.305 1446.821,801.657 1432.383,812.169C1417.945,822.681 1397.427,847.252 1393.374,853.331C1389.321,859.41 1376.276,876.382 1369.563,887.147C1362.851,897.913 1356.138,905.892 1349.299,920.457C1342.46,935.022 1334.734,959.719 1330.554,974.664C1326.375,989.609 1317.509,1018.993 1312.696,1038.497C1307.884,1058.002 1303.451,1088.272 1300.158,1105.243C1296.865,1122.215 1295.218,1139.566 1292.052,1161.477C1288.36,1187.023 1273.814,1208.085 1264.568,1222.143C1255.323,1236.202 1242.024,1246.081 1235.692,1250.007C1229.359,1253.933 1224.546,1246.967 1224.546,1246.967Z" style="fill:rgb(235,235,235);"/>
                    </g>
                    <g transform="matrix(1.034333,0,0,1.034333,-13.488095,218.072843)">
                        <path d="M1048.786,1491.086C1045.252,1494.547 1032.675,1499.99 1032.675,1499.99C1032.675,1499.99 1022.105,1504.078 1008.642,1505.375C995.18,1506.671 991.092,1491.912 991.092,1491.912C991.092,1491.912 987.901,1485.929 990.493,1468.877C993.086,1451.825 997.873,1441.255 1002.659,1430.285C1007.446,1419.316 1014.925,1403.66 1020.808,1395.583C1026.692,1387.505 1033.672,1378.331 1042.647,1367.462C1051.622,1356.592 1070.967,1342.831 1070.967,1342.831C1099.388,1323.585 1112.65,1320.693 1135.586,1308.826C1158.522,1296.96 1196.914,1286.19 1196.914,1286.19C1196.914,1286.19 1217.556,1281.403 1233.711,1280.905C1249.865,1280.406 1252.757,1288.583 1256.447,1297.382C1260.136,1306.18 1252.558,1346.943 1252.558,1346.943C1252.558,1346.943 1250.862,1355.419 1243.583,1376.634C1236.303,1397.85 1216.021,1429.83 1216.021,1429.83C1216.021,1429.83 1209.16,1438.605 1196.874,1448.498C1184.589,1458.39 1164.007,1467.165 1164.007,1467.165C1164.007,1467.165 1148.69,1474.265 1130.182,1480.887C1111.674,1487.508 1092.527,1490.54 1092.527,1490.54C1092.527,1490.54 1076.333,1492.295 1072.663,1492.135C1068.993,1491.976 1064.809,1492.196 1063.053,1489.854C1061.296,1487.512 1062.844,1484.657 1062.844,1484.657C1062.844,1484.657 1062.341,1483.84 1057.667,1484.775C1052.993,1485.71 1048.786,1491.086 1048.786,1491.086ZM1014.696,1455.137C1014.696,1455.137 1003.661,1493.031 1030.385,1476.544C1030.385,1476.544 1041.554,1470.96 1049.931,1468.3C1058.307,1465.641 1072.268,1449.553 1072.268,1449.553C1072.268,1449.553 1084.766,1436.523 1095.669,1418.573C1106.572,1400.624 1116.544,1393.045 1127.845,1388.657C1139.147,1384.27 1151.379,1382.674 1154.038,1386.663C1156.698,1390.652 1160.022,1395.837 1153.241,1405.809C1146.46,1415.781 1137.817,1423.094 1121.197,1435.459C1104.577,1447.825 1092.877,1456.799 1092.877,1456.799C1092.877,1456.799 1079.581,1466.505 1081.575,1472.09C1083.57,1477.674 1090.616,1477.807 1090.616,1477.807C1090.616,1477.807 1104.045,1479.137 1125.851,1471.691C1147.656,1464.245 1165.872,1456.932 1175.711,1448.822C1185.55,1440.711 1199.511,1422.629 1205.494,1407.471C1211.477,1392.314 1220.385,1359.739 1222.646,1345.379C1224.906,1331.019 1223.975,1314.931 1214.003,1309.48C1204.031,1304.028 1179.168,1310.41 1179.168,1310.41C1179.168,1310.41 1150.98,1317.989 1114.682,1336.072C1078.384,1354.154 1064.955,1366.652 1064.955,1366.652C1064.955,1366.652 1044.061,1387.559 1027.46,1421.964C1016.957,1443.733 1014.696,1455.137 1014.696,1455.137Z" style="fill:rgb(235,235,235);"/>
                    </g>
                </g>
                <g transform="matrix(1.143296,0,0,1.143296,134.468903,-144.285646)">
                    <path d="M1120.206,1239.368C1119.686,1234.002 1121.59,1230.194 1125.572,1226.066C1129.553,1221.937 1135.092,1220.154 1143.054,1221.712C1151.016,1223.27 1160.536,1224.482 1170.749,1221.539C1180.961,1218.597 1186.673,1220.847 1192.212,1223.606C1197.751,1226.366 1203.117,1233.656 1201.386,1245.548C1199.655,1257.44 1188.404,1261.177 1182.346,1261.177C1176.288,1261.177 1172.826,1260.831 1167.287,1259.1C1161.748,1257.369 1154.997,1258.581 1154.997,1258.581C1150.497,1261.004 1145.304,1263.182 1145.304,1263.182C1121.764,1268.821 1120.206,1239.368 1120.206,1239.368Z" style="fill:rgb(235,235,235);"/>
                    <path d="M955.823,1242.83C957.551,1232.86 957.95,1235.519 961.273,1230.335C964.597,1225.15 970.579,1224.353 976.162,1223.688C981.745,1223.023 980.416,1226.612 993.311,1227.676C1006.205,1228.739 1006.737,1223.954 1016.707,1225.178C1026.677,1226.402 1032.925,1232.993 1034.52,1241.261C1036.116,1249.528 1034.653,1255.193 1029.602,1261.278C1024.55,1267.362 1014.447,1264.898 1007.801,1263.435C1001.154,1261.973 998.096,1262.239 985.866,1263.435C973.636,1264.632 970.579,1263.568 970.579,1263.568C954.892,1260.91 955.823,1242.83 955.823,1242.83Z" style="fill:rgb(235,235,235);"/>
                    <path d="M789.174,1246.315C790.296,1237.608 793.163,1233.336 799.02,1229.223C804.877,1225.111 815.097,1226.606 833.666,1226.066C852.235,1225.525 854.728,1228.849 857.47,1231.591C860.212,1234.333 863.452,1235.33 862.953,1249.537C862.455,1263.745 848.123,1265.49 843.138,1265.918C838.153,1266.346 830.55,1264.742 823.821,1264.243C817.091,1263.745 819.334,1266.487 805.002,1265.918C790.67,1265.349 789.174,1246.315 789.174,1246.315Z" style="fill:rgb(235,235,235);"/>
                    <path d="M620.249,1241.261C622.766,1235.691 625.278,1232.136 630.709,1228.82C636.14,1225.504 649.119,1226.476 649.119,1226.476C649.119,1226.476 672.731,1225.218 679.82,1227.105C686.91,1228.992 692.913,1238.082 693.885,1246.544C694.857,1255.007 687.539,1262.324 683.937,1264.325C680.335,1266.326 674.618,1267.298 670.844,1265.918C667.071,1264.537 660.324,1263.982 655.007,1264.954C649.69,1265.926 638.506,1265.918 638.506,1265.918C613.381,1261.481 620.249,1241.261 620.249,1241.261Z" style="fill:rgb(235,235,235);"/>
                    <path d="M283.171,1230.353C283.171,1230.353 287.672,1217.022 310.178,1222.908C310.178,1222.908 334.589,1223.428 341.687,1222.216C348.785,1221.004 348.093,1220.138 355.018,1224.64C361.943,1229.141 362.981,1241.433 362.981,1241.433C362.981,1241.433 365.232,1252.513 353.113,1256.321C353.113,1256.321 340.475,1256.668 330.607,1256.148C330.607,1256.148 322.989,1255.975 316.584,1258.918C310.178,1261.861 296.848,1262.381 292.173,1258.572C287.499,1254.763 282.132,1252.166 281.786,1243.51C281.439,1234.854 283.171,1230.353 283.171,1230.353Z" style="fill:rgb(235,235,235);"/>
                    <path d="M449.063,1238.477C451.895,1228.997 458.296,1227.028 462.852,1225.797C467.407,1224.565 474.547,1227.151 474.547,1227.151C474.547,1227.151 490.798,1229.613 496.338,1227.643C501.878,1225.673 506.925,1225.181 506.925,1225.181C506.925,1225.181 518.005,1224.812 522.93,1231.952C527.854,1239.093 527.485,1250.049 525.884,1254.605C524.284,1259.16 514.312,1265.192 506.802,1263.715C499.292,1262.237 488.212,1263.345 488.212,1263.345C488.212,1263.345 480.456,1264.577 472.824,1265.685C465.191,1266.793 457.312,1263.592 457.312,1263.592C445.493,1256.205 449.063,1238.477 449.063,1238.477Z" style="fill:rgb(235,235,235);"/>
                    <path d="M296.256,1132.304C297.357,1118.902 300.674,1099.253 313.661,1050.887C326.648,1002.521 336.063,982.3 336.063,982.3C336.063,982.3 356.355,930.515 372.264,904.008C388.173,877.501 388.173,872.596 424.698,830.942C461.224,789.289 513.983,778.183 513.983,778.183C513.983,778.183 539.794,766.82 564.307,799.682C588.82,832.544 584.274,883.447 583.463,909.258C582.651,935.07 576.482,967.699 576.482,967.699C576.482,967.699 593.04,928.089 609.274,900.921C625.508,873.752 636.871,858.876 646.936,843.454C657.001,828.032 678.754,809.12 690.28,799.542C701.805,789.964 725.669,774.867 749.207,767.562C772.746,760.257 778.103,761.231 792.226,772.757C806.349,784.283 812.194,826.49 812.194,826.49C812.194,826.49 811.707,830.386 814.953,831.847C818.2,833.308 821.284,823.243 817.064,801.815C812.843,780.386 820.96,764.802 820.96,764.802C820.96,764.802 828.752,751.491 842.875,750.192C856.998,748.893 865.115,759.121 867.225,766.426C869.336,773.731 857.647,788.828 857.647,788.828L843.687,815.289C843.687,815.289 837.193,825.678 839.628,828.113C842.063,830.548 845.148,826.49 850.667,820.483C856.186,814.477 869.823,787.529 883.459,777.14C897.095,766.75 900.179,763.179 918.901,762.205C938.827,761.168 961.108,782.497 973.283,792.886C986.162,803.876 996.66,823.405 1006.075,856.035C1015.491,888.664 1015.328,968.218 1015.328,968.218C1015.328,968.218 1031.562,917.569 1048.77,880.523C1065.977,843.477 1080.587,828.333 1096.659,808.365C1112.73,788.398 1132.21,781.742 1132.21,781.742C1132.21,781.742 1148.444,773.95 1166.625,778.041C1184.807,782.131 1202.014,794.924 1211.43,803.852C1220.845,812.781 1235.131,835.021 1240.813,853.202C1246.494,871.384 1250.228,925.928 1249.741,935.182C1249.254,944.435 1248.767,986.317 1246.007,1005.635C1243.248,1024.953 1235.942,1061.641 1235.942,1061.641C1235.942,1061.641 1231.722,1083.881 1229.124,1098.329C1226.527,1112.777 1221.332,1120.25 1217.599,1127.718C1213.865,1135.185 1206.073,1146.224 1194.222,1149.146C1182.372,1152.068 1176.041,1143.708 1176.041,1143.708C1176.041,1143.708 1172.307,1140.136 1175.878,1125.364C1179.45,1110.591 1181.722,1111.728 1186.43,1094.845C1191.138,1077.962 1200.391,1036.891 1200.391,1036.891C1200.391,1036.891 1211.105,989.57 1212.404,950.123C1213.697,910.845 1213.027,861.154 1205.369,838.436C1200.988,825.441 1192.839,817.846 1189.784,814.41C1187.187,811.488 1183.291,809.702 1175.661,810.514C1168.059,811.323 1154.071,817.332 1140.11,827.884C1126.149,838.436 1106.019,868.63 1094.818,886C1083.617,903.37 1068.357,942.33 1061.539,962.135C1054.721,981.94 1046.767,1009.537 1040.923,1029.018C1035.079,1048.498 1024.364,1078.53 1020.468,1095.088C1016.572,1111.646 1016.085,1109.861 1013.813,1119.114C1011.54,1128.367 1000.014,1140.705 993.845,1145.412C987.677,1150.12 974.203,1152.068 967.06,1148.821C959.917,1145.575 957.644,1136.159 956.346,1125.445C955.047,1114.731 967.385,1048.985 969.008,1038.758C970.631,1028.531 976.638,971.145 976.638,971.145C976.638,971.145 980.858,930.155 978.423,904.344C975.988,878.533 973.809,854.164 972.256,846.709C969.328,832.652 960.16,823.697 956.324,822.216C952.487,820.736 944.909,813.418 932.068,818.874C919.227,824.33 903.533,830.764 881.893,856.208C860.254,881.652 838.139,941.101 828.151,966.546C818.164,991.99 806.512,1029.53 796.049,1073.76C785.586,1117.99 777.025,1132.733 777.025,1132.733C777.025,1132.733 773.828,1149.664 757.05,1150.092C741.831,1150.481 738.502,1143.672 735.886,1134.636C733.271,1125.599 738.502,1105.268 753.246,1042.49C767.989,979.711 767.276,885.187 763.471,851.658C759.666,818.129 749.916,807.666 749.916,807.666C749.916,807.666 735.411,789.831 714.723,806.477C694.034,823.123 679.767,842.741 655.749,879.837C631.732,916.933 616.75,965.206 602.245,1002.778C587.739,1040.349 572.283,1093.973 572.283,1093.973C572.283,1093.973 567.527,1114.899 556.35,1132.258C545.174,1149.617 530.193,1150.33 525.199,1149.379C520.205,1148.428 514.736,1143.434 510.931,1136.062C507.126,1128.691 508.553,1117.395 509.742,1103.841C510.931,1090.287 516.638,1060.919 524.01,1018.115C531.395,975.233 535.662,931.439 535.662,931.439C535.662,931.439 535.9,895.531 533.046,873.654C530.193,851.777 519.492,829.662 513.309,820.863C507.126,812.065 498.566,813.016 491.67,814.443C469.611,819.007 457.427,832.374 446.964,842.361C436.501,852.348 432.016,858.672 426.751,868.281C416.328,887.304 391.32,940.333 384.423,956.503C377.527,972.673 359.455,1034.976 359.455,1034.976C359.455,1034.976 353.034,1061.134 347.565,1086.34C342.096,1111.546 339.744,1126.482 339.744,1126.482L335.863,1137.212C335.863,1137.212 332.782,1149.996 314.747,1151.822C296.713,1153.648 296.256,1132.304 296.256,1132.304Z" style="fill:rgb(235,235,235);"/>
                </g>
            </g>
        </g>
    </g>
</svg>
